<svg id="visual" viewBox="0 0 900 300" width="900" height="300" xmlns="http://www.w3.org/2000/svg" xmlns:xlink="http://www.w3.org/1999/xlink" version="1.1"><rect x="0" y="0" width="900" height="300" fill="#001220"></rect><defs><linearGradient id="grad1_0" x1="66.7%" y1="0%" x2="100%" y2="100%"><stop offset="-10%" stop-color="#001220" stop-opacity="1"></stop><stop offset="110%" stop-color="#001220" stop-opacity="1"></stop></linearGradient></defs><defs><linearGradient id="grad2_0" x1="0%" y1="0%" x2="33.3%" y2="100%"><stop offset="-10%" stop-color="#001220" stop-opacity="1"></stop><stop offset="110%" stop-color="#001220" stop-opacity="1"></stop></linearGradient></defs><g transform="translate(900, 0)"><path d="M0 210C-13.2 181.7 -26.4 153.4 -48.8 150.3C-71.3 147.2 -102.9 169.2 -119.9 165C-136.9 160.8 -139.2 130.3 -152.1 110.5C-164.9 90.7 -188.3 81.5 -199.7 64.9C-211.1 48.3 -210.6 24.1 -210 0L0 0Z" fill="#FCAF3C"></path></g><g transform="translate(0, 300)"><path d="M0 -210C25 -212.6 50 -215.3 64 -196.9C77.9 -178.5 80.8 -139 84.6 -116.5C88.5 -94 93.4 -88.5 116.5 -84.6C139.6 -80.8 181.1 -78.7 199.7 -64.9C218.4 -51.1 214.2 -25.5 210 0L0 0Z" fill="#FCAF3C"></path></g></svg>