<svg id="visual" viewBox="0 0 600 900" width="600" height="900" xmlns="http://www.w3.org/2000/svg" xmlns:xlink="http://www.w3.org/1999/xlink" version="1.1"><rect x="0" y="0" width="600" height="900" fill="#001220"></rect><defs><linearGradient id="grad1_0" x1="0%" y1="100%" x2="100%" y2="0%"><stop offset="30%" stop-color="#001220" stop-opacity="1"></stop><stop offset="70%" stop-color="#001220" stop-opacity="1"></stop></linearGradient></defs><defs><linearGradient id="grad2_0" x1="0%" y1="100%" x2="100%" y2="0%"><stop offset="30%" stop-color="#001220" stop-opacity="1"></stop><stop offset="70%" stop-color="#001220" stop-opacity="1"></stop></linearGradient></defs><g transform="translate(600, 900)"><path d="M-378.6 0C-388.6 -49.5 -398.7 -99 -360.1 -117C-321.4 -135 -234.1 -121.5 -207.1 -150.5C-180.1 -179.4 -213.3 -250.8 -203.4 -279.9C-193.4 -309 -140.3 -295.9 -99.2 -305.3C-58.1 -314.7 -29.1 -346.6 0 -378.6L0 0Z" fill="#FF0066"></path></g><g transform="translate(0, 0)"><path d="M378.6 0C370.3 38.3 362.1 76.5 351.9 114.3C341.7 152.1 329.5 189.4 306.3 222.5C283.1 255.6 248.9 284.4 210.4 289.6C171.9 294.8 129.1 276.3 93.3 287.2C57.5 298.1 28.8 338.3 0 378.6L0 0Z" fill="#FF0066"></path></g></svg>