<svg id="visual" viewBox="0 0 600 900" width="600" height="900" xmlns="http://www.w3.org/2000/svg" xmlns:xlink="http://www.w3.org/1999/xlink" version="1.1"><rect x="0" y="0" width="600" height="900" fill="#001220"></rect><defs><linearGradient id="grad1_0" x1="0%" y1="100%" x2="100%" y2="0%"><stop offset="30%" stop-color="#001220" stop-opacity="1"></stop><stop offset="70%" stop-color="#001220" stop-opacity="1"></stop></linearGradient></defs><defs><linearGradient id="grad2_0" x1="0%" y1="100%" x2="100%" y2="0%"><stop offset="30%" stop-color="#001220" stop-opacity="1"></stop><stop offset="70%" stop-color="#001220" stop-opacity="1"></stop></linearGradient></defs><g transform="translate(600, 900)"><path d="M-324.5 0C-297.8 -29.7 -271 -59.3 -250.1 -81.3C-229.2 -103.2 -214.1 -117.5 -209.5 -152.2C-204.9 -187 -210.8 -242.2 -190.7 -262.5C-170.7 -282.9 -124.8 -268.4 -88.7 -273C-52.6 -277.5 -26.3 -301 0 -324.5L0 0Z" fill="#FF0066"></path></g><g transform="translate(0, 0)"><path d="M324.5 0C289.5 23.6 254.6 47.3 248.2 80.7C241.9 114 264.2 157.1 257.3 186.9C250.3 216.8 214.1 233.4 184 253.2C153.9 273.1 129.9 296.2 100.3 308.6C70.6 321 35.3 322.8 0 324.5L0 0Z" fill="#FF0066"></path></g></svg>