<svg id="visual" viewBox="0 0 900 300" width="900" height="300" xmlns="http://www.w3.org/2000/svg" xmlns:xlink="http://www.w3.org/1999/xlink" version="1.1"><rect x="0" y="0" width="900" height="300" fill="#001220"></rect><defs><linearGradient id="grad1_0" x1="66.7%" y1="100%" x2="100%" y2="0%"><stop offset="-10%" stop-color="#001220" stop-opacity="1"></stop><stop offset="110%" stop-color="#001220" stop-opacity="1"></stop></linearGradient></defs><defs><linearGradient id="grad2_0" x1="0%" y1="100%" x2="33.3%" y2="0%"><stop offset="-10%" stop-color="#001220" stop-opacity="1"></stop><stop offset="110%" stop-color="#001220" stop-opacity="1"></stop></linearGradient></defs><g transform="translate(900, 300)"><path d="M-210 0C-190.5 -15.3 -171 -30.7 -168.3 -54.7C-165.7 -78.7 -180 -111.3 -167.5 -121.7C-155 -132 -115.7 -120 -96.4 -132.7C-77.1 -145.4 -77.6 -182.7 -64.9 -199.7C-52.1 -216.7 -26.1 -213.4 0 -210L0 0Z" fill="#FF0066"></path></g><g transform="translate(0, 0)"><path d="M210 0C210.8 24 211.5 47.9 199.7 64.9C187.9 81.9 163.6 91.8 148.1 107.6C132.5 123.3 125.7 144.8 110.5 152.1C95.3 159.4 71.7 152.5 51.9 159.8C32.1 167.1 16 188.5 0 210L0 0Z" fill="#FF0066"></path></g></svg>