<svg id="visual" viewBox="0 0 600 900" width="600" height="900" xmlns="http://www.w3.org/2000/svg" xmlns:xlink="http://www.w3.org/1999/xlink" version="1.1"><rect x="0" y="0" width="600" height="900" fill="#001220"></rect><defs><linearGradient id="grad1_0" x1="0%" y1="0%" x2="100%" y2="100%"><stop offset="30%" stop-color="#001220" stop-opacity="1"></stop><stop offset="70%" stop-color="#001220" stop-opacity="1"></stop></linearGradient></defs><defs><linearGradient id="grad2_0" x1="0%" y1="0%" x2="100%" y2="100%"><stop offset="30%" stop-color="#001220" stop-opacity="1"></stop><stop offset="70%" stop-color="#001220" stop-opacity="1"></stop></linearGradient></defs><g transform="translate(600, 0)"><path d="M0 324.5C-20.2 276.2 -40.5 227.8 -70.5 216.8C-100.5 205.8 -140.2 232.2 -165.8 228.1C-191.3 224.1 -202.6 189.7 -227.3 165.2C-252.1 140.7 -290.2 126.1 -308.6 100.3C-327 74.4 -325.8 37.2 -324.5 0L0 0Z" fill="#FBAE3C"></path></g><g transform="translate(0, 900)"><path d="M0 -324.5C25.1 -288.8 50.2 -253.1 78.8 -242.5C107.4 -231.9 139.6 -246.3 177.5 -244.3C215.4 -242.3 259 -223.8 262.5 -190.7C266 -157.6 229.4 -109.9 233 -75.7C236.6 -41.5 280.6 -20.7 324.5 0L0 0Z" fill="#FBAE3C"></path></g></svg>