<svg id="visual" viewBox="0 0 540 960" width="540" height="960" xmlns="http://www.w3.org/2000/svg" xmlns:xlink="http://www.w3.org/1999/xlink" version="1.1"><rect x="0" y="0" width="540" height="960" fill="#001220"></rect><defs><linearGradient id="grad1_0" x1="0%" y1="0%" x2="100%" y2="100%"><stop offset="30%" stop-color="#001220" stop-opacity="1"></stop><stop offset="70%" stop-color="#001220" stop-opacity="1"></stop></linearGradient></defs><defs><linearGradient id="grad2_0" x1="0%" y1="0%" x2="100%" y2="100%"><stop offset="30%" stop-color="#001220" stop-opacity="1"></stop><stop offset="70%" stop-color="#001220" stop-opacity="1"></stop></linearGradient></defs><g transform="translate(540, 0)"><path d="M0 378C-30.1 364.4 -60.3 350.9 -90.6 338.1C-120.9 325.3 -151.3 313.3 -167 289.3C-182.7 265.2 -183.5 229.1 -215 215C-246.4 200.8 -308.4 208.5 -327.4 189C-346.3 169.5 -322.3 122.7 -323.6 86.7C-324.9 50.7 -351.4 25.3 -378 0L0 0Z" fill="#FBAE3C"></path></g><g transform="translate(0, 960)"><path d="M0 -378C20.4 -331 40.9 -284 76.1 -284C111.3 -284 161.3 -330.9 189 -327.4C216.7 -323.8 222.1 -269.8 236.2 -236.2C250.2 -202.6 273 -189.3 292.7 -169C312.5 -148.7 329.2 -121.2 342.9 -91.9C356.6 -62.5 367.3 -31.3 378 0L0 0Z" fill="#FBAE3C"></path></g></svg>