<svg id="visual" viewBox="0 0 900 600" width="900" height="600" xmlns="http://www.w3.org/2000/svg" xmlns:xlink="http://www.w3.org/1999/xlink" version="1.1"><rect x="0" y="0" width="900" height="600" fill="#001220"></rect><defs><linearGradient id="grad1_0" x1="33.3%" y1="0%" x2="100%" y2="100%"><stop offset="20%" stop-color="#001220" stop-opacity="1"></stop><stop offset="80%" stop-color="#001220" stop-opacity="1"></stop></linearGradient></defs><defs><linearGradient id="grad2_0" x1="0%" y1="0%" x2="66.7%" y2="100%"><stop offset="20%" stop-color="#001220" stop-opacity="1"></stop><stop offset="80%" stop-color="#001220" stop-opacity="1"></stop></linearGradient></defs><g transform="translate(900, 0)"><path d="M0 378.6C-31 356.4 -62 334.2 -83.1 310.1C-104.2 285.9 -115.3 259.9 -147.5 255.5C-179.7 251 -233 268.2 -252.4 252.4C-271.9 236.6 -257.6 187.9 -275.4 159C-293.2 130.1 -343.1 121.2 -365.7 98C-388.2 74.8 -383.4 37.4 -378.6 0L0 0Z" fill="#FBAE3C"></path></g><g transform="translate(0, 600)"><path d="M0 -378.6C35.2 -378.3 70.4 -378.1 95.2 -355.5C120.1 -332.9 134.6 -287.9 150 -259.8C165.4 -231.7 181.7 -220.4 213.5 -213.5C245.4 -206.7 292.8 -204.3 321.3 -185.5C349.8 -166.7 359.3 -131.6 365.7 -98C372.1 -64.3 375.3 -32.2 378.6 0L0 0Z" fill="#FBAE3C"></path></g></svg>