<svg id="visual" viewBox="0 0 540 960" width="540" height="960" xmlns="http://www.w3.org/2000/svg" xmlns:xlink="http://www.w3.org/1999/xlink" version="1.1"><rect x="0" y="0" width="540" height="960" fill="#001220"></rect><defs><linearGradient id="grad1_0" x1="0%" y1="0%" x2="100%" y2="100%"><stop offset="30%" stop-color="#001220" stop-opacity="1"></stop><stop offset="70%" stop-color="#001220" stop-opacity="1"></stop></linearGradient></defs><defs><linearGradient id="grad2_0" x1="0%" y1="0%" x2="100%" y2="100%"><stop offset="30%" stop-color="#001220" stop-opacity="1"></stop><stop offset="70%" stop-color="#001220" stop-opacity="1"></stop></linearGradient></defs><g transform="translate(540, 0)"><path d="M0 459C-51.5 461.5 -103 464 -141.8 436.5C-180.6 409 -206.7 351.5 -221.6 305C-236.5 258.5 -240.1 222.9 -274.3 199.3C-308.4 175.7 -373.1 164.1 -409 132.9C-444.8 101.7 -451.9 50.8 -459 0L0 0Z" fill="#FBAE3C"></path></g><g transform="translate(0, 960)"><path d="M0 -459C53.1 -462.2 106.1 -465.5 141.8 -436.5C177.5 -407.6 195.9 -346.4 224.5 -309C253.2 -271.7 292.2 -258.1 317.9 -231C343.7 -203.9 356.3 -163.4 377.6 -122.7C398.9 -81.9 428.9 -41 459 0L0 0Z" fill="#FBAE3C"></path></g></svg>