<svg id="visual" viewBox="0 0 600 900" width="600" height="900" xmlns="http://www.w3.org/2000/svg" xmlns:xlink="http://www.w3.org/1999/xlink" version="1.1"><rect x="0" y="0" width="600" height="900" fill="#001220"></rect><defs><linearGradient id="grad1_0" x1="0%" y1="0%" x2="100%" y2="100%"><stop offset="30%" stop-color="#001220" stop-opacity="1"></stop><stop offset="70%" stop-color="#001220" stop-opacity="1"></stop></linearGradient></defs><defs><linearGradient id="grad2_0" x1="0%" y1="0%" x2="100%" y2="100%"><stop offset="30%" stop-color="#001220" stop-opacity="1"></stop><stop offset="70%" stop-color="#001220" stop-opacity="1"></stop></linearGradient></defs><g transform="translate(600, 0)"><path d="M0 378.6C-49.5 388.6 -99 398.7 -117 360.1C-135 321.4 -121.5 234.1 -150.5 207.1C-179.4 180.1 -250.8 213.3 -279.9 203.4C-309 193.4 -295.9 140.3 -305.3 99.2C-314.7 58.1 -346.6 29.1 -378.6 0L0 0Z" fill="#FBAE3C"></path></g><g transform="translate(0, 900)"><path d="M0 -378.6C38.3 -370.3 76.5 -362.1 114.3 -351.9C152.1 -341.7 189.4 -329.5 222.5 -306.3C255.6 -283.1 284.4 -248.9 289.6 -210.4C294.8 -171.9 276.3 -129.1 287.2 -93.3C298.1 -57.5 338.3 -28.8 378.6 0L0 0Z" fill="#FBAE3C"></path></g></svg>